HIERARCHY
ROOT Root
{
	OFFSET 0.0000 0.0000 0.0000
	CHANNELS 6 Xposition Yposition Zposition Zrotation Xrotation Yrotation
	JOINT Spine01
	{
		OFFSET 0.0000 -16.7008 118.8322
		CHANNELS 6 Xposition Yposition Zposition Zrotation Xrotation Yrotation
		JOINT Spine02
		{
			OFFSET 0.0000 11.8586 169.5859
			CHANNELS 6 Xposition Yposition Zposition Zrotation Xrotation Yrotation
			JOINT LeftShoulder
			{
				OFFSET 83.0000 21.5583 44.2746
				CHANNELS 6 Xposition Yposition Zposition Zrotation Xrotation Yrotation
				JOINT LeftArm
				{
					OFFSET 0.0000 -111.4369 141.3570
					CHANNELS 6 Xposition Yposition Zposition Zrotation Xrotation Yrotation
					JOINT LeftForeArm
					{
						OFFSET 0.0000 -172.4081 -79.8464
						CHANNELS 6 Xposition Yposition Zposition Zrotation Xrotation Yrotation
						JOINT LeftWrist
						{
							OFFSET 0.0000 -209.8784 7.1457
							CHANNELS 6 Xposition Yposition Zposition Zrotation Xrotation Yrotation
							JOINT LeftHand
							{
								OFFSET 0.0000 -64.9257 26.1658
								CHANNELS 6 Xposition Yposition Zposition Zrotation Xrotation Yrotation
								End Site
								{
									OFFSET 0.0000 -20.5704 56.3636
								}
							}
						}
					}
				}
			}
			JOINT RightShoulder
			{
				OFFSET -83.0000 21.5583 44.2746
				CHANNELS 6 Xposition Yposition Zposition Zrotation Xrotation Yrotation
				JOINT RightArm
				{
					OFFSET 0.0000 -111.4369 141.3570
					CHANNELS 6 Xposition Yposition Zposition Zrotation Xrotation Yrotation
					JOINT RightForeArm
					{
						OFFSET 0.0000 -172.4081 -79.8464
						CHANNELS 6 Xposition Yposition Zposition Zrotation Xrotation Yrotation
						JOINT RightWrist
						{
							OFFSET 0.0000 -209.8784 7.1457
							CHANNELS 6 Xposition Yposition Zposition Zrotation Xrotation Yrotation
							JOINT RightHand
							{
								OFFSET 0.0000 -64.9257 26.1658
								CHANNELS 6 Xposition Yposition Zposition Zrotation Xrotation Yrotation
								End Site
								{
									OFFSET 0.0000 -20.5704 56.3636
								}
							}
						}
					}
				}
			}
			JOINT Neck01
			{
				OFFSET 0.0000 4.1879 119.9269
				CHANNELS 6 Xposition Yposition Zposition Zrotation Xrotation Yrotation
				JOINT Neck02
				{
					OFFSET 0.0000 -14.3102 88.8550
					CHANNELS 6 Xposition Yposition Zposition Zrotation Xrotation Yrotation
					JOINT Neck03
					{
						OFFSET 0.0000 72.0997 53.8668
						CHANNELS 6 Xposition Yposition Zposition Zrotation Xrotation Yrotation
						JOINT Neck04
						{
							OFFSET 0.0000 88.9597 -13.6445
							CHANNELS 6 Xposition Yposition Zposition Zrotation Xrotation Yrotation
							JOINT Head
							{
								OFFSET 0.0000 19.3735 72.4546
								CHANNELS 6 Xposition Yposition Zposition Zrotation Xrotation Yrotation
								End Site
								{
									OFFSET 0.0000 -28.2512 167.6361
								}
								JOINT LeftEar
								{
									OFFSET 45.0000 62.4894 -9.7509
									CHANNELS 6 Xposition Yposition Zposition Zrotation Xrotation Yrotation
									End Site
									{
										OFFSET 23.1256 59.6428 28.4242
									}
								}
								JOINT RightEar
								{
									OFFSET -45.0000 62.4894 -9.7509
									CHANNELS 6 Xposition Yposition Zposition Zrotation Xrotation Yrotation
									End Site
									{
										OFFSET -23.1256 59.6428 28.4242
									}
								}
							}
						}
					}
				}
			}
		}
	}
	JOINT LeftLeg
	{
		OFFSET 75.0000 -65.3041 -110.1607
		CHANNELS 6 Xposition Yposition Zposition Zrotation Xrotation Yrotation
		JOINT LeftLowerLeg
		{
			OFFSET 0.0000 -209.4885 14.6489
			CHANNELS 6 Xposition Yposition Zposition Zrotation Xrotation Yrotation
			JOINT LeftAnkle
			{
				OFFSET 0.0000 -168.5298 -141.4133
				CHANNELS 6 Xposition Yposition Zposition Zrotation Xrotation Yrotation
				JOINT LeftFoot
				{
					OFFSET 0.0000 -96.5926 25.8819
					CHANNELS 6 Xposition Yposition Zposition Zrotation Xrotation Yrotation
					End Site
					{
						OFFSET 0.0000 -19.5341 56.7311
					}
				}
			}
		}
	}
	JOINT RightLeg
	{
		OFFSET -75.0000 -65.3041 -110.1607
		CHANNELS 6 Xposition Yposition Zposition Zrotation Xrotation Yrotation
		JOINT RightLowerLeg
		{
			OFFSET 0.0000 -209.4885 14.6489
			CHANNELS 6 Xposition Yposition Zposition Zrotation Xrotation Yrotation
			JOINT RightAnkle
			{
				OFFSET 0.0000 -168.5298 -141.4133
				CHANNELS 6 Xposition Yposition Zposition Zrotation Xrotation Yrotation
				JOINT RightFoot
				{
					OFFSET 0.0000 -96.5926 25.8819
					CHANNELS 6 Xposition Yposition Zposition Zrotation Xrotation Yrotation
					End Site
					{
						OFFSET 0.0000 -19.5341 56.7311
					}
				}
			}
		}
	}
	JOINT TailBase
	{
		OFFSET 0.0000 -22.9100 -124.3991
		CHANNELS 6 Xposition Yposition Zposition Zrotation Xrotation Yrotation
		JOINT Tail1
		{
			OFFSET 0.0000 0.0000 -67.0000
			CHANNELS 6 Xposition Yposition Zposition Zrotation Xrotation Yrotation
			JOINT Tail2
			{
				OFFSET 0.0000 0.0000 -67.0000
				CHANNELS 6 Xposition Yposition Zposition Zrotation Xrotation Yrotation
				JOINT Tail3
				{
					OFFSET 0.0000 0.0000 -67.0000
					CHANNELS 6 Xposition Yposition Zposition Zrotation Xrotation Yrotation
					JOINT Tail4
					{
						OFFSET 0.0000 0.0000 -67.0000
						CHANNELS 6 Xposition Yposition Zposition Zrotation Xrotation Yrotation
						JOINT Tail5
						{
							OFFSET 0.0000 0.0000 -67.0000
							CHANNELS 6 Xposition Yposition Zposition Zrotation Xrotation Yrotation
							JOINT Tail6
							{
								OFFSET 0.0000 0.0000 -67.0000
								CHANNELS 6 Xposition Yposition Zposition Zrotation Xrotation Yrotation
								End Site
								{
									OFFSET 0.0000 0.0000 -67.0000
								}
							}
						}
					}
				}
			}
		}
	}
}
MOTION
Frames: 4
Frame Time: 0.008342
0.0000 0.0000 0.0000 0.0000 0.0000 0.0000 0.0000 -16.7008 118.8322 0.0000 0.0000 0.0000 0.0000 11.8586 169.5859 0.0000 0.0000 0.0000 83.0000 21.5583 44.2746 0.0000 0.0000 0.0000 0.0000 -111.4369 141.3570 0.0000 0.0000 0.0000 0.0000 -172.4081 -79.8464 0.0000 0.0000 0.0000 0.0000 -209.8784 7.1457 0.0000 0.0000 0.0000 0.0000 -64.9257 26.1658 0.0000 0.0000 0.0000 -83.0000 21.5583 44.2746 0.0000 0.0000 0.0000 0.0000 -111.4369 141.3570 0.0000 0.0000 0.0000 0.0000 -172.4081 -79.8464 0.0000 0.0000 0.0000 0.0000 -209.8784 7.1457 0.0000 0.0000 0.0000 0.0000 -64.9257 26.1658 0.0000 0.0000 0.0000 0.0000 4.1879 119.9269 0.0000 0.0000 0.0000 0.0000 -14.3102 88.8550 0.0000 0.0000 0.0000 0.0000 72.0997 53.8668 0.0000 0.0000 0.0000 0.0000 88.9597 -13.6445 0.0000 0.0000 0.0000 0.0000 19.3735 72.4546 0.0000 0.0000 0.0000 45.0000 62.4894 -9.7509 0.0000 0.0000 0.0000 -45.0000 62.4894 -9.7509 0.0000 0.0000 0.0000 75.0000 -65.3041 -110.1607 0.0000 0.0000 0.0000 0.0000 -209.4885 14.6489 0.0000 0.0000 0.0000 0.0000 -168.5298 -141.4133 0.0000 0.0000 0.0000 0.0000 -96.5926 25.8819 0.0000 0.0000 0.0000 -75.0000 -65.3041 -110.1607 0.0000 0.0000 0.0000 0.0000 -209.4885 14.6489 0.0000 0.0000 0.0000 0.0000 -168.5298 -141.4133 0.0000 0.0000 0.0000 0.0000 -96.5926 25.8819 0.0000 0.0000 0.0000 0.0000 -22.9100 -124.3991 0.0000 0.0000 0.0000 0.0000 0.0000 -67.0000 0.0000 0.0000 0.0000 0.0000 0.0000 -67.0000 0.0000 0.0000 0.0000 0.0000 0.0000 -67.0000 0.0000 0.0000 0.0000 0.0000 0.0000 -67.0000 0.0000 0.0000 0.0000 0.0000 0.0000 -67.0000 0.0000 0.0000 0.0000 0.0000 0.0000 -67.0000 0.0000 0.0000 0.0000 
-391.2880 600.3130 -1043.1300 -0.4641 1.3031 -7.4210 0.0000 -16.7008 118.8322 -5.2446 4.9255 13.6216 0.0000 11.8586 169.5859 -1.2135 1.8792 6.8629 55.0658 21.1723 16.7400 2.8724 -8.3595 17.0782 -0.0000 -111.4369 141.3570 -5.2929 -1.6028 -13.2995 0.0000 -172.4081 -79.8464 0.3191 -12.9787 -9.0999 0.0000 -209.8784 7.1457 6.4022 11.0098 0.2231 0.0000 -64.9257 26.1658 -7.4500 -2.1863 2.4476 -71.2868 23.8078 42.5307 -4.5716 -7.2837 -5.6802 -0.0000 -111.4369 141.3570 -7.3323 6.4414 2.4924 0.0000 -172.4081 -79.8464 -0.9292 6.7809 28.3421 -0.0000 -209.8784 7.1457 -3.1407 20.4252 -0.1155 0.0000 -64.9257 26.1658 37.8778 45.7847 -39.0972 0.0000 4.1879 119.9269 -5.0169 -21.2694 -4.7744 0.0000 -14.3102 88.8550 4.2717 1.3603 10.6830 0.0000 72.0997 53.8668 -3.5484 2.6823 -4.0203 0.0000 88.9597 -13.6445 3.9784 11.9309 -4.4791 -0.0000 19.3735 72.4546 18.5997 -20.7841 -6.5119 55.6781 63.0986 -5.4999 -13.3497 9.5583 0.7449 -36.2776 74.9992 -3.2863 4.6191 11.0981 7.9046 75.0000 -65.3041 -110.1607 4.0145 2.1400 -17.0652 -0.0000 -209.4885 14.6489 -0.0000 -7.1046 -0.0000 0.0000 -168.5298 -141.4133 -0.0000 10.5726 -0.0000 0.0000 -96.5926 25.8819 2.8652 4.5395 -1.2113 -75.0000 -65.3041 -110.1607 -4.9716 -10.4544 -24.8329 0.0000 -209.4885 14.6489 -0.0000 -10.2829 -0.0000 0.0000 -168.5298 -141.4133 -0.0000 14.7388 0.0000 0.0000 -96.5926 25.8819 -1.1370 0.9693 0.4107 0.0000 -22.9100 -124.3991 4.8267 -31.3475 7.5084 -0.0000 0.0000 -67.0000 -5.8275 -22.3732 -15.0098 0.0000 0.0000 -67.0000 -0.3517 -3.7756 -5.3251 0.0000 0.0000 -67.0000 0.2260 1.3698 -9.3684 0.0000 0.0000 -67.0000 -1.3454 14.7994 5.2531 -0.0000 0.0000 -67.0000 -9.2524 29.8029 18.1471 -0.0000 0.0000 -67.0000 -1.3316 23.8929 3.2848 
-392.2390 600.5590 -1037.6400 -0.1363 1.0229 -6.3988 0.0000 -16.7008 118.8322 -5.2295 5.2426 13.8359 0.0000 11.8586 169.5859 -1.2792 1.8101 6.9236 55.5844 20.8378 16.7100 2.2710 -8.2526 17.4150 0.0000 -111.4369 141.3570 -5.7086 -1.1515 -14.0544 -0.0000 -172.4081 -79.8464 0.3486 -12.3935 -9.9772 0.0000 -209.8784 7.1457 5.4722 10.9883 0.1908 -0.0000 -64.9257 26.1658 -6.9150 -2.7678 2.1983 -70.7686 25.1785 40.6101 -7.3590 -9.7855 -5.3909 0.0000 -111.4369 141.3570 -3.1519 9.1100 3.4688 -0.0000 -172.4081 -79.8464 -1.1405 1.8939 35.7982 -0.0000 -209.8784 7.1457 8.0248 26.2496 0.3088 -0.0000 -64.9257 26.1658 33.0222 59.9665 -35.3050 0.0000 4.1879 119.9269 -5.4789 -21.3226 -4.6280 0.0000 -14.3102 88.8550 4.4939 1.3334 10.5795 -0.0000 72.0997 53.8668 -3.4693 2.6627 -4.1350 -0.0000 88.9597 -13.6445 3.7874 12.3780 -5.4658 0.0000 19.3735 72.4546 19.2141 -21.2490 -4.9816 55.7239 63.6634 -5.4068 -13.0684 9.6109 0.6335 -36.2244 75.1340 -3.1732 4.6163 10.8732 7.8312 75.0000 -65.3041 -110.1607 3.7900 1.9925 -15.7972 0.0000 -209.4885 14.6489 -0.0000 -5.7608 -0.0000 0.0000 -168.5298 -141.4133 0.0000 10.1452 0.0000 -0.0000 -96.5926 25.8819 2.8784 7.0587 -1.3385 -75.0000 -65.3041 -110.1607 -5.3987 -9.6415 -25.7041 -0.0000 -209.4885 14.6489 0.0000 -9.5868 0.0000 0.0000 -168.5298 -141.4133 -0.0000 14.2119 0.0000 0.0000 -96.5926 25.8819 -1.0172 0.3162 0.3559 0.0000 -22.9100 -124.3991 4.7822 -31.0833 7.4813 0.0000 0.0000 -67.0000 -5.9408 -22.4161 -15.2637 -0.0000 0.0000 -67.0000 -0.3832 -3.8732 -5.6550 0.0000 0.0000 -67.0000 0.2120 1.2272 -9.8005 0.0000 -0.0000 -67.0000 -1.3758 15.0018 5.3011 0.0000 0.0000 -67.0000 -9.3374 30.0653 18.1702 0.0000 0.0000 -67.0000 -1.3508 23.8014 3.3440 
-392.9110 600.6220 -1032.1700 0.0789 0.7812 -5.4259 0.0000 -16.7008 118.8322 -5.1520 5.4771 14.0213 -0.0000 11.8586 169.5859 -1.3450 1.7242 7.0196 56.0669 20.5848 16.8649 1.6043 -8.1412 17.8014 -0.0000 -111.4369 141.3570 -5.9158 -0.6925 -14.7402 0.0000 -172.4081 -79.8464 0.3803 -11.7325 -10.9280 0.0000 -209.8784 7.1457 4.6696 10.8640 0.1628 0.0000 -64.9257 26.1658 -6.4222 -3.2332 1.9868 -70.4740 26.1878 38.9382 -10.4427 -12.2878 -5.9955 0.0000 -111.4369 141.3570 2.6070 11.2962 5.7445 0.0000 -172.4081 -79.8464 -1.1686 -2.9350 36.6911 0.0000 -209.8784 7.1457 18.5005 31.4481 0.7401 0.0000 -64.9257 26.1658 23.5898 65.0897 -25.1843 -0.0000 4.1879 119.9269 -5.8459 -21.3616 -4.4819 0.0000 -14.3102 88.8550 4.7711 1.1206 10.4994 -0.0000 72.0997 53.8668 -3.4578 2.7227 -4.1461 0.0000 88.9597 -13.6445 3.6735 12.8135 -6.3592 -0.0000 19.3735 72.4546 19.6771 -21.2162 -3.8550 55.6175 63.7468 -5.3179 -13.0030 9.5938 0.6157 -36.1877 74.9972 -3.1856 4.6338 10.6399 7.7504 75.0000 -65.3041 -110.1607 3.6431 1.4762 -14.4179 0.0000 -209.4885 14.6489 0.0000 -3.7877 -0.0000 0.0000 -168.5298 -141.4133 -0.0000 9.6270 0.0000 0.0000 -96.5926 25.8819 3.2373 9.8162 -1.6520 -75.0000 -65.3041 -110.1607 -5.6907 -8.8452 -26.3774 0.0000 -209.4885 14.6489 -0.0000 -8.9328 -0.0000 -0.0000 -168.5298 -141.4133 0.0000 13.7418 0.0000 0.0000 -96.5926 25.8819 -0.8337 -0.2867 0.2829 -0.0000 -22.9100 -124.3991 4.7615 -30.8650 7.4838 0.0000 0.0000 -67.0000 -6.0599 -22.5054 -15.5014 0.0000 0.0000 -67.0000 -0.4184 -4.0142 -5.9555 0.0000 0.0000 -67.0000 0.2144 1.1722 -10.3659 0.0000 0.0000 -67.0000 -1.3919 15.1868 5.2989 -0.0000 0.0000 -67.0000 -9.3090 30.2788 18.0093 0.0000 -0.0000 -67.0000 -1.3723 23.9054 3.3832 
